<?xml version="1.0" encoding="UTF-8"?>
<svg id="Layer_1" data-name="Layer 1" xmlns="http://www.w3.org/2000/svg" viewBox="0 0 16 16">
  <defs>
    <style>
      .cls-1 {
        fill: #2d719e;
        stroke-width: 0px;
      }
    </style>
  </defs>
  <path class="cls-1" d="M8.08,12.3l-1.17-.22.04-4.29-1.43,4.03-.97-.18-1.46-4.57c.03.53.05,4.3.05,4.3l-1.07-.2v-5.28l1.74.32s1.24,3.86,1.28,4.12l1.3-3.65,1.7.32v5.28Z"/>
  <polygon class="cls-1" points="11.74 11.79 9.38 9.97 10.96 9.61 10.96 6.78 12.53 6.42 12.53 9.26 14.1 8.9 11.74 11.79"/>
  <path class="cls-1" d="M7.37,2.38L1,3.83v8.88l7.77,1.44,6.37-1.44V3.83l-7.77-1.44ZM7.38,2.89l6.53,1.21-5.14,1.16-6.53-1.21,5.14-1.16ZM14.64,12.31l-5.87,1.33-1.27-.24-6-1.11v-7.86l6.13,1.14,1.14.22,1.82-.41,4.05-.92v7.86Z"/>
</svg>