<?xml version="1.0" encoding="utf-8"?>
<!-- Generator: Adobe Illustrator 28.1.0, SVG Export Plug-In . SVG Version: 6.00 Build 0)  -->
<svg version="1.1" id="Layer_1" xmlns="http://www.w3.org/2000/svg" xmlns:xlink="http://www.w3.org/1999/xlink" x="0px" y="0px"
	 viewBox="0 0 16 16" style="enable-background:new 0 0 16 16;" xml:space="preserve">
<style type="text/css">
	.st0{fill:#2D719E;}
</style>
<path class="st0" d="M8.1,12.3l-1.2-0.2l0-4.3l-1.4,4l-1-0.2L3.1,7.1c0,0.5,0,4.3,0,4.3l-1.1-0.2V5.9l1.7,0.3c0,0,1.2,3.9,1.3,4.1
	l1.3-3.6L8.1,7V12.3z"/>
<polygon class="st0" points="11.7,11.8 9.4,10 11,9.6 11,6.8 12.5,6.4 12.5,9.3 14.1,8.9 "/>
<path class="st0" d="M7.4,2.4L1,3.8v8.9l7.8,1.4l6.4-1.4V3.8L7.4,2.4z M7.4,2.9l6.5,1.2L8.8,5.3L2.2,4.1L7.4,2.9z M14.6,12.3
	l-5.9,1.3l-1.3-0.2l-6-1.1V4.4l6.1,1.1l1.1,0.2l1.8-0.4l4-0.9V12.3z"/>
</svg>
